<?xml version="1.0" encoding="utf-8"?>
<!-- Generator: Adobe Illustrator 25.4.1, SVG Export Plug-In . SVG Version: 6.00 Build 0)  -->
<svg version="1.1" id="圖層_1" xmlns="http://www.w3.org/2000/svg" xmlns:xlink="http://www.w3.org/1999/xlink" x="0px" y="0px"
	 viewBox="0 0 391.3 128.3" style="enable-background:new 0 0 391.3 128.3;" xml:space="preserve">
<style type="text/css">
	.st0{fill:#FFD400;}
</style>
<path class="st0" d="M10.9,95.6V13.7h89.8v21.8H37.1v14.7h50.7V71H37.1v24.6H10.9z"/>
<path class="st0" d="M117.1,13.7h26.2v81.9h-26.2V13.7z"/>
<path class="st0" d="M169.2,67.2c10.7,5,25.3,9.3,44.2,9.3c10.2,0,21.7-1.3,21.7-5.6c0-3.4-7.3-3.9-17.5-4.6
	c-37.6-2.4-54.9-8.7-54.9-26.6c0-21,22.7-28.7,48.8-28.7c17.1,0,32.5,3.6,43.7,8.4l-8.6,20c-9.1-3.7-22.5-6.6-36.7-6.6
	c-10.8,0-21,1.3-21,5.6c0,3.1,5.1,3.8,14.3,4.4c32.8,1.9,58.1,6.3,58.1,27c0,19.2-20.5,28.6-49.3,28.6c-25,0-41.3-5.9-52.4-11.1
	L169.2,67.2z"/>
<path class="st0" d="M354.2,65.5H304v30h-26.2V13.7H304v30h50.2v-30h26.2v81.9h-26.2V65.5z"/>
</svg>
